<?xml version="1.0" encoding="UTF-8"?>
<svg width="40px" height="40px" viewBox="0 0 40 40" version="1.1" xmlns="http://www.w3.org/2000/svg" xmlns:xlink="http://www.w3.org/1999/xlink">
    <!-- Generator: Sketch 51.2 (57519) - http://www.bohemiancoding.com/sketch -->
    <title>Chat/avatar</title>
    <desc>Created with Sketch.</desc>
    <defs></defs>
    <g id="Chat/avatar" stroke="none" stroke-width="1" fill="none" fill-rule="evenodd">
        <circle id="Oval" stroke="#F3F3F3" fill="#FFFFFF" cx="20" cy="20" r="20"></circle>
        <g id="Group-4" transform="translate(6.451613, 7.741935)">
            <path d="M8.71971079,1.79517241 C8.68758621,1.81377086 8.67279199,1.85265851 8.68335929,1.88816463 C8.69477197,1.92324805 8.7294327,1.94649611 8.76662959,1.9418465 C8.77550612,1.94100111 9.60355951,1.85561735 10.9675862,2.1079644 C16.3082981,3.10129032 19.2671413,6.68825362 19.2958843,6.72418242 C19.3157508,6.74827586 19.34703,6.75926585 19.3774638,6.75081201 C19.4070523,6.74278087 19.4303003,6.71826474 19.4353726,6.68783092 C19.4370634,6.67684093 19.643337,5.52923248 20.7102113,4.46447164 C21.7660957,3.40901001 22.8325473,3.08480534 22.8426919,3.0818465 C22.8722803,3.07339266 22.8938376,3.04929922 22.8980645,3.01971079 C22.9031368,2.99012236 22.8913014,2.95968854 22.8667853,2.94193548 C22.8304338,2.91657397 19.240089,0.375773081 15.1742158,0.337730812 C11.3721023,0.300533927 8.74591769,1.77995551 8.71971079,1.79517241" id="Shape" fill="#00AA55" fill-rule="nonzero"></path>
            <path d="M8.52353518,2.12813593 C8.49732828,2.13151747 8.47492561,2.14715707 8.46224486,2.17040512 C8.45083218,2.19365317 8.45083218,2.22155084 8.46351293,2.2443762 L10.6027565,6.16822492 C10.968385,6.84115039 13.3312326,10.7937422 13.3553261,10.8334752 C13.3709657,10.8596821 13.399286,10.874899 13.4297198,10.8715175 C13.4593083,10.869404 13.4850925,10.8491148 13.4965051,10.8220625 C13.4973505,10.8195264 13.5937243,10.5769012 14.0134573,10.0789702 C16.1218444,7.58043849 18.926405,7.7102049 18.9543027,7.71189567 C18.9838911,7.71358643 19.0130569,7.69794683 19.0278511,7.67173994 C19.0426453,7.64553304 19.0401092,7.61171769 19.0227788,7.58804694 C19.0071392,7.56479889 17.3797754,5.25182892 14.6242471,3.77113927 C11.0672949,1.85465429 8.54931939,2.12517709 8.52353518,2.12813593" id="Shape" fill="#FFCC00" fill-rule="nonzero"></path>
            <path d="M8.22347052,2.20856507 C8.21374861,2.22082314 7.97365962,2.51332592 7.76949944,2.88318131 C4.84320356,8.20614016 6.74404894,13.4386429 6.76307008,13.490634 C6.77363737,13.5202225 6.80068966,13.540089 6.83154616,13.5417798 C6.86197998,13.5443159 6.8919911,13.5278309 6.90720801,13.5012013 C6.90805339,13.4978198 7.06318131,13.2171524 7.53067853,12.8046051 C9.70754171,10.8779755 12.6397553,11.1624472 12.668921,11.165406 C12.6968187,11.1692102 12.725139,11.1556841 12.7424694,11.1320133 C12.758109,11.1079199 12.7606452,11.0774861 12.7466963,11.0512792 L10.572792,6.81294772 C10.1906785,6.06731924 8.37394883,2.26309232 8.35577308,2.22505006 C8.3443604,2.20053393 8.32111235,2.18362625 8.29448276,2.18066741 C8.26700779,2.17686318 8.24080089,2.18785317 8.22347052,2.20856507" id="Shape" fill="#0099CC" fill-rule="nonzero"></path>
            <path d="M7.95041157,2.16502781 C7.92040044,2.1810901 4.90449388,3.78140156 2.80836485,7.36540601 C0.569365962,11.1958398 1.04573971,14.3896997 1.05123471,14.4214016 C1.05630701,14.4501446 1.07532814,14.4738154 1.10280311,14.4835373 C1.1294327,14.4932592 1.15986652,14.4869188 1.18226919,14.4678977 C1.19325918,14.4581758 2.36707453,13.4352614 4.39472747,13.4407564 C5.56854283,13.4428699 5.99250278,13.6808454 5.99715239,13.6829588 C6.02589544,13.6998665 6.06140156,13.6969077 6.08718576,13.6757731 C6.10536151,13.6601335 6.11592881,13.6377308 6.11592881,13.6144828 C6.11592881,13.6056062 6.11423804,13.5971524 6.1112792,13.5886986 C6.10240267,13.5616463 5.61038932,12.0953281 5.61038932,9.94551724 C5.61038932,8.0789099 5.9810901,5.69830923 7.35737486,3.29784205 C7.6731257,2.75341491 8.04509455,2.28803115 8.04932147,2.28295884 C8.06031146,2.26858732 8.06622914,2.25125695 8.06622914,2.23392659 C8.06622914,2.21575083 8.06031146,2.19842047 8.04847608,2.18320356 C8.02438265,2.15572859 7.98338154,2.14769744 7.95041157,2.16502781" id="Shape" fill="#EE2222" fill-rule="nonzero"></path>
            <path d="M20.9794661,19.1614683 C20.9794661,19.1614683 20.8357508,19.083693 20.5559288,19.245584 C20.3082314,19.3973304 20.3340156,19.5575306 20.3340156,19.5575306 C20.3340156,19.5575306 20.3454283,19.5807786 20.3454283,19.5833148 C20.4164405,19.6978643 20.7068298,20.2084761 20.8332147,20.5014016 C20.9650945,20.8010901 20.9951057,21.1941935 20.5326808,21.5137486 C20.2858287,21.68198 19.8200222,21.7977976 19.447208,21.6105451 C19.3614016,21.5699666 19.2307898,21.4710567 19.1217353,21.3193103 C18.9632258,21.0982425 17.0315239,17.5133927 17.0315239,17.5133927 L13.8241379,11.5775306 C13.8241379,11.5775306 13.7463626,11.4317019 13.7573526,11.3628031 C13.7729922,11.2478309 13.803426,11.2021802 13.8431591,11.1404672 C15.9278754,7.78133482 19.8094549,8.13301446 19.8094549,8.13301446 C19.8094549,8.13301446 19.7904338,7.6989099 19.9028699,7.10840934 C20.5466296,3.85072303 24.4789321,3.13848721 24.4789321,3.13848721 C24.4789321,3.13848721 22.939911,1.89746385 20.570723,1.04827586 C18.8452948,0.427341491 17.4419577,0.0972191324 15.2786207,0.0959510567 C12.7365517,0.0942602892 10.5043159,0.861023359 10.2452058,0.940489433 C9.53931034,1.16155729 8.48596218,1.70302558 8.48596218,1.70302558 L7.52307008,0.214727475 C7.52307008,0.214727475 7.48671858,0.191902113 7.41570634,0.229098999 C7.35272525,0.263337041 7.35061179,0.31025584 7.35061179,0.31025584 L7.98126808,1.9519911 C7.98126808,1.9519911 7.75343715,2.06484983 7.47150167,2.23519466 C6.9494772,2.55390434 6.10958843,3.05733037 4.78487208,4.32709677 C3.98513904,5.09428254 2.84809789,6.49423804 1.96636263,8.10173526 C-0.0853837597,11.8556618 0.395216908,15.6658065 0.395216908,15.6658065 C0.395216908,15.6658065 2.01032258,13.9648943 4.41839822,13.987297 C5.93163515,14.0029366 6.81125695,14.4683204 6.81125695,14.4683204 C6.81125695,14.4683204 7.16209121,13.8435818 7.83755284,13.2425139 C9.07223582,12.1409789 10.9726585,11.6777086 12.3755729,11.6886986 C12.6883648,11.690812 12.8519466,11.7005339 12.9576196,11.7339266 C13.0459622,11.7630923 13.099644,11.8408676 13.099644,11.8408676 L18.379911,21.5429143 C18.379911,21.5429143 18.7869633,22.4990434 19.9666963,22.4470523 C21.1159956,22.4001335 21.6938154,21.6122358 21.6938154,20.8349055 C21.6988877,20.1886096 21.1100779,19.3639377 20.9955284,19.1813348 L20.9794661,19.1614683 Z M15.1729477,0.417196885 C19.2603782,0.455239155 22.8202892,3.00660734 22.8202892,3.00660734 C22.8202892,3.00660734 21.7377753,3.32531702 20.6531479,4.40825362 C19.5549944,5.50556174 19.3571746,6.67472747 19.3571746,6.67472747 C19.3571746,6.67472747 16.4165072,3.04084538 10.981535,2.0301891 C9.58876529,1.77276974 8.75817575,1.8636485 8.75817575,1.8636485 C8.75817575,1.8636485 11.349277,0.379154616 15.1729477,0.417196885 L15.1729477,0.417196885 Z M4.39430478,13.361713 C2.30916574,13.3557953 1.12901001,14.4095662 1.12901001,14.4095662 C1.12901001,14.4095662 0.625583982,11.2558621 2.87684093,7.40556174 C4.98607341,3.79957731 7.98718576,2.23519466 7.98718576,2.23519466 C7.98718576,2.23519466 7.61141268,2.70395996 7.28889878,3.26022247 C4.27256952,8.51935484 6.03688543,13.6157508 6.03688543,13.6157508 C6.03688543,13.6157508 5.61377086,13.3642492 4.39430478,13.361713 L4.39430478,13.361713 Z M7.47741935,12.7458509 C6.99174638,13.1753059 6.83661846,13.4631591 6.83661846,13.4631591 C6.83661846,13.4631591 4.89646274,8.27419355 7.8392436,2.92122358 C8.04086763,2.55348165 8.28433815,2.25802002 8.28433815,2.25802002 C8.28433815,2.25802002 10.1150167,6.09352614 10.5013571,6.84803115 C10.891079,7.60591769 12.6765295,11.0867853 12.6765295,11.0867853 C12.6765295,11.0867853 9.7079644,10.7723026 7.47741935,12.7458509 L7.47741935,12.7458509 Z M10.6653615,6.02843159 C10.5043159,5.73001112 8.52696329,2.10416018 8.52696329,2.10416018 C8.52696329,2.10416018 11.0052058,1.81123471 14.5807564,3.7374416 C17.3515017,5.22658509 18.9530812,7.52983315 18.9530812,7.52983315 C18.9530812,7.52983315 16.1075195,7.36456062 13.9467186,9.92607341 C13.5092325,10.4447164 13.416663,10.6903003 13.416663,10.6903003 C13.416663,10.6903003 11.0360623,6.70727475 10.6653615,6.02843159 L10.6653615,6.02843159 Z" id="Shape" fill="#000000" fill-rule="nonzero"></path>
            <path d="M20.9794661,19.1614683 C20.9794661,19.1614683 20.8357508,19.083693 20.5559288,19.245584 C20.3082314,19.3973304 20.3340156,19.5575306 20.3340156,19.5575306 C20.3340156,19.5575306 20.3454283,19.5807786 20.3454283,19.5833148 C20.4164405,19.6978643 20.7068298,20.2084761 20.8332147,20.5014016 C20.9650945,20.8010901 20.9951057,21.1941935 20.5326808,21.5137486 C20.2858287,21.68198 19.8200222,21.7977976 19.447208,21.6105451 C19.3614016,21.5699666 19.2307898,21.4710567 19.1217353,21.3193103 C18.9632258,21.0982425 17.0315239,17.5133927 17.0315239,17.5133927 L13.8241379,11.5775306 C13.8241379,11.5775306 13.7463626,11.4317019 13.7573526,11.3628031 C13.7729922,11.2478309 13.803426,11.2021802 13.8431591,11.1404672 C15.9278754,7.78133482 19.8094549,8.13301446 19.8094549,8.13301446 C19.8094549,8.13301446 19.7904338,7.6989099 19.9028699,7.10840934 C20.5466296,3.85072303 24.4789321,3.13848721 24.4789321,3.13848721 C24.4789321,3.13848721 22.939911,1.89746385 20.570723,1.04827586 C18.8452948,0.427341491 17.4419577,0.0972191324 15.2786207,0.0959510567 C12.7365517,0.0942602892 10.5043159,0.861023359 10.2452058,0.940489433 C9.53931034,1.16155729 8.48596218,1.70302558 8.48596218,1.70302558 L7.52307008,0.214727475 C7.52307008,0.214727475 7.48671858,0.191902113 7.41570634,0.229098999 C7.35272525,0.263337041 7.35061179,0.31025584 7.35061179,0.31025584 L7.98126808,1.9519911 C7.98126808,1.9519911 7.75343715,2.06484983 7.47150167,2.23519466 C6.9494772,2.55390434 6.10958843,3.05733037 4.78487208,4.32709677 C3.98513904,5.09428254 2.84809789,6.49423804 1.96636263,8.10173526 C-0.0853837597,11.8556618 0.395216908,15.6658065 0.395216908,15.6658065 C0.395216908,15.6658065 2.01032258,13.9648943 4.41839822,13.987297 C5.93163515,14.0029366 6.81125695,14.4683204 6.81125695,14.4683204 C6.81125695,14.4683204 7.16209121,13.8435818 7.83755284,13.2425139 C9.07223582,12.1409789 10.9726585,11.6777086 12.3755729,11.6886986 C12.6883648,11.690812 12.8519466,11.7005339 12.9576196,11.7339266 C13.0459622,11.7630923 13.099644,11.8408676 13.099644,11.8408676 L18.379911,21.5429143 C18.379911,21.5429143 18.7869633,22.4990434 19.9666963,22.4470523 C21.1159956,22.4001335 21.6938154,21.6122358 21.6938154,20.8349055 C21.6988877,20.1886096 21.1100779,19.3639377 20.9955284,19.1813348 L20.9794661,19.1614683 Z M15.1729477,0.417196885 C19.2603782,0.455239155 22.8202892,3.00660734 22.8202892,3.00660734 C22.8202892,3.00660734 21.7377753,3.32531702 20.6531479,4.40825362 C19.5549944,5.50556174 19.3571746,6.67472747 19.3571746,6.67472747 C19.3571746,6.67472747 16.4165072,3.04084538 10.981535,2.0301891 C9.58876529,1.77276974 8.75817575,1.8636485 8.75817575,1.8636485 C8.75817575,1.8636485 11.349277,0.379154616 15.1729477,0.417196885 Z M4.39430478,13.361713 C2.30916574,13.3557953 1.12901001,14.4095662 1.12901001,14.4095662 C1.12901001,14.4095662 0.625583982,11.2558621 2.87684093,7.40556174 C4.98607341,3.79957731 7.98718576,2.23519466 7.98718576,2.23519466 C7.98718576,2.23519466 7.61141268,2.70395996 7.28889878,3.26022247 C4.27256952,8.51935484 6.03688543,13.6157508 6.03688543,13.6157508 C6.03688543,13.6157508 5.61377086,13.3642492 4.39430478,13.361713 Z M7.47741935,12.7458509 C6.99174638,13.1753059 6.83661846,13.4631591 6.83661846,13.4631591 C6.83661846,13.4631591 4.89646274,8.27419355 7.8392436,2.92122358 C8.04086763,2.55348165 8.28433815,2.25802002 8.28433815,2.25802002 C8.28433815,2.25802002 10.1150167,6.09352614 10.5013571,6.84803115 C10.891079,7.60591769 12.6765295,11.0867853 12.6765295,11.0867853 C12.6765295,11.0867853 9.7079644,10.7723026 7.47741935,12.7458509 Z M10.6653615,6.02843159 C10.5043159,5.73001112 8.52696329,2.10416018 8.52696329,2.10416018 C8.52696329,2.10416018 11.0052058,1.81123471 14.5807564,3.7374416 C17.3515017,5.22658509 18.9530812,7.52983315 18.9530812,7.52983315 C18.9530812,7.52983315 16.1075195,7.36456062 13.9467186,9.92607341 C13.5092325,10.4447164 13.416663,10.6903003 13.416663,10.6903003 C13.416663,10.6903003 11.0360623,6.70727475 10.6653615,6.02843159 Z" id="Shape" stroke="#000000" stroke-width="0.025"></path>
        </g>
    </g>
</svg>